<?xml version="1.0" encoding="UTF-8" standalone="no"?>
<svg
   xmlns:dc="http://purl.org/dc/elements/1.1/"
   xmlns:cc="http://creativecommons.org/ns#"
   xmlns:rdf="http://www.w3.org/1999/02/22-rdf-syntax-ns#"
   xmlns:svg="http://www.w3.org/2000/svg"
   xmlns="http://www.w3.org/2000/svg"
   viewBox="0 0 2666.6667 2666.6667"
   height="2666.6667"
   width="2666.6667"
   xml:space="preserve"
   id="svg2"
   version="1.1"><metadata
     id="metadata8"><rdf:RDF><cc:Work
         rdf:about=""><dc:format>image/svg+xml</dc:format><dc:type
           rdf:resource="http://purl.org/dc/dcmitype/StillImage" /></cc:Work></rdf:RDF></metadata><defs
     id="defs6"><clipPath
       id="clipPath18"
       clipPathUnits="userSpaceOnUse"><path
         id="path16"
         d="M 0,0 H 1865.954 V 1936.905 H 0 Z" /></clipPath><clipPath
       id="clipPath62"
       clipPathUnits="userSpaceOnUse"><path
         id="path60"
         d="M 816.062,1345.34 H 1126.16 V 803.497 H 816.062 Z" /></clipPath><clipPath
       id="clipPath66"
       clipPathUnits="userSpaceOnUse"><path
         id="path64"
         d="m 816.063,803.497 h 310.101 v 541.838 H 816.063 Z" /></clipPath><clipPath
       id="clipPath86"
       clipPathUnits="userSpaceOnUse"><path
         id="path84"
         d="M 844.028,1345.34 H 1098.19 V 803.497 H 844.028 Z" /></clipPath><clipPath
       id="clipPath90"
       clipPathUnits="userSpaceOnUse"><path
         id="path88"
         d="m 844.029,803.497 h 254.165 v 541.838 H 844.029 Z" /></clipPath><clipPath
       id="clipPath112"
       clipPathUnits="userSpaceOnUse"><path
         id="path110"
         d="m 869.617,757.664 h 205.843 v -18.35 H 869.617 Z" /></clipPath><clipPath
       id="clipPath116"
       clipPathUnits="userSpaceOnUse"><path
         id="path114"
         d="m 869.617,739.314 h 205.847 v 18.35 H 869.617 Z" /></clipPath><clipPath
       id="clipPath152"
       clipPathUnits="userSpaceOnUse"><path
         id="path150"
         d="m 936.867,875.919 h 68.163 v -49.308 h -68.163 z" /></clipPath><clipPath
       id="clipPath156"
       clipPathUnits="userSpaceOnUse"><path
         id="path154"
         d="m 936.867,826.611 h 68.157 v 49.307 h -68.157 z" /></clipPath><clipPath
       id="clipPath192"
       clipPathUnits="userSpaceOnUse"><path
         id="path190"
         d="m 945.021,926.784 h 52.468 v -46.41 h -52.468 z" /></clipPath><clipPath
       id="clipPath196"
       clipPathUnits="userSpaceOnUse"><path
         id="path194"
         d="m 945.021,880.374 h 52.463 v 46.41 h -52.463 z" /></clipPath><clipPath
       id="clipPath216"
       clipPathUnits="userSpaceOnUse"><path
         id="path214"
         d="M 720.487,988.937 H 1221.73 V 878.081 H 720.487 Z" /></clipPath><clipPath
       id="clipPath220"
       clipPathUnits="userSpaceOnUse"><path
         id="path218"
         d="m 720.487,878.081 h 501.247 V 988.937 H 720.487 Z" /></clipPath><clipPath
       id="clipPath624"
       clipPathUnits="userSpaceOnUse"><path
         id="path622"
         d="M 0,0 H 1865.954 V 1936.905 H 0 Z" /></clipPath><clipPath
       id="clipPath716"
       clipPathUnits="userSpaceOnUse"><path
         id="path714"
         d="M 0,2000 H 2000 V 0 H 0 Z" /></clipPath></defs><g
     transform="matrix(1.3333333,0,0,-1.3333333,0,2666.6667)"
     id="g10"><g
       id="g12"><g
         clip-path="url(#clipPath18)"
         id="g14"><g
           transform="translate(420.5479,1059.6394)"
           id="g20"><path
             id="path22"
             style="fill:#2a2540;fill-opacity:1;fill-rule:nonzero;stroke:none"
             d="m 0,0 c 2.718,142.771 59.567,276.594 160.828,377.855 103.796,103.796 241.799,160.959 388.589,160.959 146.788,0 284.793,-57.163 388.588,-160.959 C 1039.267,276.594 1096.116,142.771 1098.834,0 h 173.902 C 1266.996,394.582 945.353,712.681 549.406,712.681 153.46,712.681 -168.184,394.582 -173.923,0 Z" /></g><g
           transform="translate(969.9645,1575.1965)"
           id="g24"><path
             id="path26"
             style="fill:#2a2540;fill-opacity:1;fill-rule:nonzero;stroke:none"
             d="m 0,0 c -290.197,0 -526.29,-236.094 -526.29,-526.291 0,-290.197 236.093,-526.291 526.29,-526.291 290.198,0 526.291,236.094 526.291,526.291 C 526.291,-236.094 290.198,0 0,0" /></g><g
           transform="translate(1519.382,1038.1711)"
           id="g28"><path
             id="path30"
             style="fill:#2a2540;fill-opacity:1;fill-rule:nonzero;stroke:none"
             d="m 0,0 c -2.718,-142.771 -59.567,-276.595 -160.829,-377.854 -103.795,-103.797 -241.8,-160.959 -388.588,-160.959 -146.79,0 -284.793,57.162 -388.589,160.959 -101.261,101.259 -158.11,235.083 -160.828,377.854 h -173.923 c 5.739,-394.581 327.383,-712.681 723.329,-712.681 395.947,0 717.59,318.1 723.33,712.681 z" /></g><g
           transform="translate(971.1115,1538.7883)"
           id="g32"><path
             id="path34"
             style="fill:#ffffff;fill-opacity:1;fill-rule:nonzero;stroke:none"
             d="M 0,0 C 0,0 -5.489,-95.342 -85.578,-122.159 -195.608,-159 -250.624,-215.454 -250.624,-314.344 V -785.305 H 0 250.623 v 470.961 c 0,98.89 -55.015,155.344 -165.045,192.185 C 5.489,-95.342 0,0 0,0 m 0,-106.71 c 18.222,-20.74 42.485,-42.086 74.317,-52.513 116.11,-38.036 139.901,-88.289 139.901,-152.043 V -747.114 H 0.001 -214.218 v 435.848 c 0,63.754 23.791,114.007 139.9,152.043 31.832,10.427 56.095,31.773 74.318,52.513" /></g><g
           transform="translate(681.6393,1103.488)"
           id="g36"><path
             id="path38"
             style="fill:#ffffff;fill-opacity:1;fill-rule:nonzero;stroke:none"
             d="M 0,0 -26.176,-13.166 -52.352,0 -26.176,13.165 Z m 0,-32.727 -26.176,-13.165 -26.176,13.165 26.176,13.165 z m 0,-32.727 -26.176,-13.165 -26.176,13.165 26.176,13.165 z m 0,-32.726 -26.176,-13.165 -26.176,13.165 26.176,13.165 z m 0,-32.727 -26.176,-13.165 -26.176,13.165 26.176,13.165 z m 0,-32.726 -26.176,-13.165 -26.176,13.165 26.176,13.164 z m 0,-32.728 -26.176,-13.164 -26.176,13.164 26.176,13.165 z m 0,-32.725 -26.176,-13.165 -26.176,13.165 26.176,13.164 z m 0,-32.727 -26.176,-13.165 -26.176,13.165 26.176,13.164 z M -49.61,34.105 -26.176,45.892 0,32.727 -26.176,19.561 -51.929,32.513 c -1.781,-1.269 -3.449,-2.558 -5.045,-3.859 L -32.534,16.363 -58.71,3.197 -73.18,10.475 c -1.003,-1.651 -1.897,-3.33 -2.721,-5.028 L -65.069,0 -80.604,-7.814 c -0.554,-2.317 -1,-4.673 -1.343,-7.072 l 23.237,11.687 26.176,-13.165 -26.176,-13.165 -23.586,11.862 c -0.225,-2.021 -0.389,-4.069 -0.492,-6.148 l 17.719,-8.912 -17.88,-8.993 v -6.397 l 24.239,12.192 26.176,-13.165 -26.176,-13.165 -24.239,12.19 v -6.395 l 17.88,-8.994 -17.88,-8.993 v -6.396 l 24.239,12.191 26.176,-13.165 -26.176,-13.165 -24.239,12.19 v -6.396 l 17.88,-8.992 -17.88,-8.993 v -6.397 l 24.239,12.192 26.176,-13.165 -26.176,-13.165 -24.239,12.191 v -6.397 l 17.88,-8.993 -17.88,-8.993 v -6.396 l 24.239,12.19 26.176,-13.164 -26.176,-13.165 -24.239,12.191 v -6.396 l 17.88,-8.993 -17.88,-8.993 v -6.397 l 24.239,12.19 26.176,-13.164 -26.176,-13.165 -24.239,12.191 v -6.396 l 17.88,-8.994 -17.88,-8.992 v -6.397 l 24.239,12.191 26.176,-13.164 -26.176,-13.165 -24.239,12.19 v -6.395 l 17.88,-8.993 -17.88,-8.994 v -6.396 l 24.239,12.19 26.176,-13.164 -26.176,-13.165 -24.239,12.191 v -6.397 l 17.88,-8.992 -17.88,-8.993 v -6.397 l 24.239,12.192 26.176,-13.165 -50.227,-25.262 h 12.718 l 43.867,22.063 43.867,-22.063 h 3.67 v 4.55 l -41.178,20.712 26.175,13.165 15.003,-7.546 v 6.395 l -8.644,4.349 8.644,4.348 v 6.395 l -15.003,-7.545 -26.175,13.165 26.175,13.164 15.003,-7.545 v 6.397 l -8.644,4.348 8.644,4.347 v 6.397 l -15.003,-7.546 -26.175,13.165 26.175,13.164 15.003,-7.546 v 6.397 l -8.644,4.347 8.644,4.349 v 6.396 l -15.003,-7.546 -26.175,13.165 26.175,13.164 15.003,-7.545 v 6.397 l -8.644,4.348 8.644,4.347 v 6.397 l -15.003,-7.546 -26.175,13.165 26.175,13.164 15.003,-7.546 v 6.398 l -8.644,4.347 8.644,4.348 v 6.396 l -15.003,-7.545 -26.175,13.165 26.175,13.165 15.003,-7.546 v 6.396 l -8.644,4.348 8.644,4.347 v 6.397 l -15.003,-7.546 -26.175,13.165 26.175,13.165 15.003,-7.546 v 6.397 l -8.644,4.347 8.644,4.348 v 6.396 l -15.003,-7.545 -26.175,13.165 26.175,13.165 15.003,-7.546 v 6.397 l -8.644,4.347 8.644,4.348 v 6.396 l -15.003,-7.546 -26.175,13.165 26.175,13.165 15.003,-7.546 v 6.396 L 12.717,0 21.361,4.347 v 6.396 L 6.358,3.197 -19.817,16.363 6.358,29.528 21.361,21.981 v 6.397 l -8.644,4.349 8.644,4.347 v 6.396 l -15.003,-7.546 -26.175,13.165 3.926,1.975 C -29.66,45.73 -40.74,40.091 -49.61,34.105" /></g><g
           transform="translate(709.9874,1256.9788)"
           id="g40"><path
             id="path42"
             style="fill:#e7c568;fill-opacity:1;fill-rule:nonzero;stroke:none"
             d="m 0,0 c 0,0 -3.169,-57.854 -49.418,-74.127 -63.537,-22.355 -95.305,-56.611 -95.305,-116.62 V -476.529 H 0 Z m -34.282,-105.06 v -337.187 h -76.16 v 251.5 c 0,36.306 12.112,63.069 72.402,84.282 1.272,0.447 2.528,0.917 3.758,1.405" /></g><g
           transform="translate(1286.7579,1116.6526)"
           id="g44"><path
             id="path46"
             style="fill:#ffffff;fill-opacity:1;fill-rule:nonzero;stroke:none"
             d="M 0,0 26.176,-13.165 0,-26.331 -26.176,-13.165 Z M 0,-32.727 26.176,-45.892 0,-59.056 -26.176,-45.892 Z M 0,-65.453 26.176,-78.618 0,-91.783 -26.176,-78.618 Z M 0,-98.18 26.176,-111.345 0,-124.51 -26.176,-111.345 Z M 0,-130.906 26.176,-144.071 0,-157.236 -26.176,-144.071 Z M 0,-163.634 26.176,-176.798 0,-189.963 -26.176,-176.798 Z M 0,-196.36 26.176,-209.525 0,-222.689 -26.176,-209.525 Z M 0,-229.087 26.176,-242.251 0,-255.416 -26.176,-242.251 Z M 0,-261.813 26.176,-274.978 0,-288.143 -26.176,-274.978 Z M -10.284,37.899 -6.359,35.924 -32.534,22.76 -47.538,30.306 v -6.397 l 8.644,-4.347 -8.644,-4.348 V 8.817 l 15.004,7.546 26.175,-13.164 -26.175,-13.166 -15.004,7.546 v -6.396 l 8.644,-4.348 -8.644,-4.348 v -6.396 l 15.004,7.546 26.175,-13.165 -26.175,-13.166 -15.004,7.546 v -6.396 l 8.644,-4.348 -8.644,-4.347 v -6.397 l 15.004,7.546 26.175,-13.165 -26.175,-13.165 -15.004,7.545 v -6.396 l 8.644,-4.347 -8.644,-4.348 v -6.396 l 15.004,7.546 26.175,-13.165 -26.175,-13.165 -15.004,7.545 v -6.396 l 8.644,-4.348 -8.644,-4.347 v -6.397 l 15.004,7.546 26.175,-13.165 -26.175,-13.165 -15.004,7.546 v -6.397 l 8.644,-4.347 -8.644,-4.348 v -6.397 l 15.004,7.545 26.175,-13.164 -26.175,-13.165 -15.004,7.546 v -6.396 l 8.644,-4.348 -8.644,-4.348 v -6.397 l 15.004,7.546 26.175,-13.164 -26.175,-13.165 -15.004,7.546 v -6.397 l 8.644,-4.348 -8.644,-4.347 v -6.398 l 15.004,7.546 26.175,-13.164 -26.175,-13.165 -15.004,7.546 v -6.396 l 8.644,-4.348 -8.644,-4.348 v -6.396 l 15.004,7.545 26.175,-13.164 -26.175,-13.165 -15.004,7.545 v -6.396 l 8.644,-4.348 -8.644,-4.348 v -6.396 l 15.004,7.546 26.175,-13.165 -41.179,-20.712 v -4.55 h 3.671 L 0,-294.539 43.867,-316.603 h 12.717 l -50.225,25.262 26.175,13.165 24.24,-12.191 v 6.396 l -17.88,8.993 17.88,8.993 v 6.396 l -24.24,-12.19 -26.175,13.165 26.175,13.164 24.24,-12.191 v 6.397 l -17.88,8.993 17.88,8.993 v 6.396 l -24.24,-12.191 -26.175,13.165 26.175,13.164 24.24,-12.19 v 6.396 l -17.88,8.993 17.88,8.994 v 6.395 l -24.24,-12.19 -26.175,13.165 26.175,13.164 24.24,-12.19 v 6.396 l -17.88,8.993 17.88,8.993 v 6.397 l -24.24,-12.192 -26.175,13.165 26.175,13.164 24.24,-12.19 v 6.397 l -17.88,8.993 17.88,8.993 v 6.396 l -24.24,-12.191 -26.175,13.165 26.175,13.165 24.24,-12.191 v 6.396 l -17.88,8.993 17.88,8.992 v 6.397 l -24.24,-12.19 -26.175,13.165 26.175,13.165 24.24,-12.192 v 6.397 l -17.88,8.993 17.88,8.993 v 6.396 L 32.534,-75.42 6.359,-62.255 32.534,-49.09 56.774,-61.281 v 6.397 l -17.88,8.992 17.718,8.913 c -0.103,2.079 -0.267,4.126 -0.49,6.148 L 32.534,-42.694 6.359,-29.528 32.534,-16.363 55.771,-28.051 c -0.343,2.4 -0.789,4.756 -1.342,7.072 l -15.535,7.814 10.832,5.448 c -0.825,1.697 -1.719,3.376 -2.722,5.027 L 32.534,-9.967 6.359,3.199 30.797,15.49 c -1.594,1.3 -3.264,2.589 -5.044,3.858 L 0,6.396 -26.176,19.562 0,32.727 23.434,20.94 c -8.869,5.986 -19.95,11.626 -33.718,16.959" /></g><g
           transform="translate(1232.2335,1256.9788)"
           id="g48"><path
             id="path50"
             style="fill:#e7c568;fill-opacity:1;fill-rule:nonzero;stroke:none"
             d="m 0,0 v -476.529 h 144.725 v 285.782 c 0,60.009 -31.77,94.265 -95.307,116.62 C 3.17,-57.854 0,0 0,0 m 34.282,-105.06 c 1.232,-0.488 2.487,-0.958 3.758,-1.405 60.29,-21.213 72.402,-47.976 72.402,-84.282 v -251.5 h -76.16 v 337.187" /></g><g
           transform="translate(1158.0226,825.8176)"
           id="g52"><path
             id="path54"
             style="fill:#ffffff;fill-opacity:1;fill-rule:nonzero;stroke:none"
             d="m 0,0 h -186.911 -186.912 v 388.707 c 0,56.857 20.758,101.676 122.066,135.598 27.774,9.299 48.945,25.124 64.845,43.621 15.9,-18.497 37.071,-34.322 64.845,-43.621 C -20.758,490.383 0,445.564 0,388.707 Z m -117.367,541.724 c -29.787,9.973 -52.493,26.944 -69.545,46.782 -17.052,-19.838 -39.757,-36.809 -69.545,-46.782 -108.65,-36.381 -130.914,-84.447 -130.914,-145.426 V -20.58 h 200.46 200.459 v 416.878 c 0,60.979 -22.264,109.045 -130.915,145.426" /></g><g
           id="g56"><g
             id="g58" /><g
             id="g78"><g
               style="opacity:0.19999701"
               id="g76"
               clip-path="url(#clipPath62)"><g
                 id="g74"><g
                   id="g72"
                   clip-path="url(#clipPath66)"><g
                     id="g70"
                     transform="translate(971.1104,1345.3357)"><path
                       id="path68"
                       style="fill:#010101;fill-opacity:1;fill-rule:nonzero;stroke:none"
                       d="m 0,0 c 13.189,-15.343 30.752,-28.471 53.791,-36.185 84.039,-28.139 101.258,-65.317 101.258,-112.482 V -541.838 H 10e-4 -155.048 v 393.171 c 0,47.165 17.219,84.343 101.258,112.482 C -30.751,-28.471 -13.189,-15.343 0,0" /></g></g></g></g></g></g><g
           id="g80"><g
             id="g82" /><g
             id="g102"><g
               style="opacity:0.19999701"
               id="g100"
               clip-path="url(#clipPath86)"><g
                 id="g98"><g
                   id="g96"
                   clip-path="url(#clipPath90)"><g
                     id="g94"
                     transform="translate(971.1104,1345.3357)"><path
                       id="path92"
                       style="fill:#010101;fill-opacity:1;fill-rule:nonzero;stroke:none"
                       d="m 0,0 c 10.811,-15.343 25.205,-28.471 44.089,-36.185 68.881,-28.139 82.994,-65.317 82.994,-112.482 V -541.838 H 0.001 -127.082 v 393.171 c 0,47.165 14.114,84.343 82.994,112.482 C -25.204,-28.471 -10.81,-15.343 0,0" /></g></g></g></g></g></g><path
           id="path104"
           style="fill:#e7c568;fill-opacity:1;fill-rule:nonzero;stroke:none"
           d="M 1080.634,739.314 H 869.617 v 18.35 h 211.017 z" /><g
           id="g106"><g
             id="g108" /><g
             id="g132"><g
               style="opacity:0.19999701"
               id="g130"
               clip-path="url(#clipPath112)"><g
                 id="g128"><g
                   id="g126"
                   clip-path="url(#clipPath116)"><g
                     id="g120"
                     transform="translate(1060.3322,757.6642)"><path
                       id="path118"
                       style="fill:#010101;fill-opacity:1;fill-rule:nonzero;stroke:none"
                       d="m 0,0 h -18.24 c 5.319,-5.936 10.589,-12.035 15.791,-18.35 h 17.58 C 10.143,-12.059 5.102,-5.937 0,0" /></g><g
                     id="g124"
                     transform="translate(881.8888,757.6642)"><path
                       id="path122"
                       style="fill:#010101;fill-opacity:1;fill-rule:nonzero;stroke:none"
                       d="M 0,0 C -4.127,-4.805 -8.218,-9.719 -12.271,-14.754 V -18.35 H 2.45 C 7.651,-12.035 12.92,-5.936 18.241,0 Z" /></g></g></g></g></g></g><g
           transform="translate(1005.0265,749.0627)"
           id="g134"><path
             id="path136"
             style="fill:#e7c568;fill-opacity:1;fill-rule:nonzero;stroke:none"
             d="m 0,0 c 0,-17.357 -14.071,-31.428 -31.428,-31.428 -17.356,0 -31.426,14.071 -31.426,31.428 0,17.356 14.07,31.427 31.426,31.427 C -14.071,31.427 0,17.356 0,0" /></g><g
           transform="translate(994.005,749.0627)"
           id="g138"><path
             id="path140"
             style="fill:#2a2540;fill-opacity:1;fill-rule:nonzero;stroke:none"
             d="m 0,0 c 0,-11.27 -9.136,-20.406 -20.406,-20.406 -11.27,0 -20.406,9.136 -20.406,20.406 0,11.27 9.136,20.405 20.406,20.405 C -9.136,20.405 0,11.27 0,0" /></g><g
           transform="translate(1109.6818,679.1028)"
           id="g142"><path
             id="path144"
             style="fill:#e7c568;fill-opacity:1;fill-rule:nonzero;stroke:none"
             d="m 0,0 c -169.462,270.634 -451.69,273.765 -454.521,273.765 v 27.524 c 2.982,0 326.273,-13.581 494.282,-301.289 z" /></g><g
           id="g146"><g
             id="g148" /><g
             id="g172"><g
               style="opacity:0.19999701"
               id="g170"
               clip-path="url(#clipPath152)"><g
                 id="g168"><g
                   id="g166"
                   clip-path="url(#clipPath156)"><g
                     id="g160"
                     transform="translate(979.5772,826.6116)"><path
                       id="path158"
                       style="fill:#010101;fill-opacity:1;fill-rule:nonzero;stroke:none"
                       d="M 0,0 C 8.466,6.48 16.957,12.581 25.449,18.356 19.653,22.901 13.832,27.293 7.99,31.54 -0.314,25.738 -8.604,19.528 -16.873,13.068 -11.237,8.868 -5.609,4.518 0,0" /></g><g
                     id="g164"
                     transform="translate(955.192,845.1896)"><path
                       id="path162"
                       style="fill:#010101;fill-opacity:1;fill-rule:nonzero;stroke:none"
                       d="M 0,0 C 8.479,6.292 17.008,12.197 25.556,17.874 19.25,22.327 12.925,26.607 6.594,30.729 -1.745,24.996 -10.058,18.98 -18.325,12.663 -12.217,8.617 -6.106,4.396 0,0" /></g></g></g></g></g></g><g
           transform="translate(832.5411,679.1028)"
           id="g174"><path
             id="path176"
             style="fill:#e7c568;fill-opacity:1;fill-rule:nonzero;stroke:none"
             d="m 0,0 c 169.461,270.634 451.688,273.765 454.521,273.765 v 27.524 C 451.538,301.289 128.247,287.708 -39.761,0 Z" /></g><g
           transform="translate(957.924,943.4172)"
           id="g178"><path
             id="path180"
             style="fill:#fce0ca;fill-opacity:1;fill-rule:nonzero;stroke:none"
             d="m 0,0 c 0,0 -49.887,92.894 -206.43,88.594 0,0 -15.554,-23.329 -19.782,-32.686 0,0 20.642,-3.44 25.803,-6.02 0,0 -26.665,0 -32.685,-1.72 L -237.66,33.999 C -233.712,33.374 -63.325,6.076 13.188,-65.336 V 3.785 c 0,0 -6.308,0 -13.188,-3.785" /></g><g
           transform="translate(984.299,943.4172)"
           id="g182"><path
             id="path184"
             style="fill:#fce0ca;fill-opacity:1;fill-rule:nonzero;stroke:none"
             d="m 0,0 c 0,0 49.887,92.894 206.431,88.594 0,0 15.552,-23.329 19.782,-32.686 0,0 -20.644,-3.44 -25.805,-6.02 0,0 26.665,0 32.686,-1.72 l 4.565,-14.169 C 233.712,33.374 63.325,6.076 -13.188,-65.336 V 3.785 c 0,0 6.307,0 13.188,-3.785" /></g><g
           id="g186"><g
             id="g188" /><g
             id="g208"><g
               style="opacity:0.19999701"
               id="g206"
               clip-path="url(#clipPath192)"><g
                 id="g204"><g
                   id="g202"
                   clip-path="url(#clipPath196)"><g
                     id="g200"
                     transform="translate(997.4894,903.5793)"><path
                       id="path198"
                       style="fill:#010101;fill-opacity:1;fill-rule:nonzero;stroke:none"
                       d="m 0,0 c 0,-12.816 -11.746,-23.204 -26.234,-23.204 -14.488,0 -26.234,10.388 -26.234,23.204 0,12.816 11.746,23.205 26.234,23.205 C -11.746,23.205 0,12.816 0,0" /></g></g></g></g></g></g><g
           id="g210"><g
             id="g212" /><g
             id="g232"><g
               style="opacity:0.19999701"
               id="g230"
               clip-path="url(#clipPath216)"><g
                 id="g228"><g
                   id="g226"
                   clip-path="url(#clipPath220)"><g
                     id="g224"
                     transform="translate(1218.2462,988.9366)"><path
                       id="path222"
                       style="fill:#010101;fill-opacity:1;fill-rule:nonzero;stroke:none"
                       d="M 0,0 C -44.202,-8.084 -183.255,-37.472 -247.135,-97.094 -311.017,-37.472 -450.069,-8.084 -494.27,0 l -3.489,-10.825 c 6.16,-1.217 13.925,-2.865 23.052,-5.02 49.955,-10.165 167.592,-39.03 227.572,-95.01 59.98,55.981 177.621,84.846 227.573,95.011 9.126,2.155 16.891,3.802 23.05,5.019 z" /></g></g></g></g></g></g><g
           transform="translate(710.1271,984.4387)"
           id="g234"><path
             id="path236"
             style="fill:#c0b904;fill-opacity:1;fill-rule:nonzero;stroke:none"
             d="m 0,0 -5.561,-10.353 c 0,0 143.833,-20.979 266.545,-104.955 v 15.831 C 184.472,-28.063 0,0 0,0" /></g><g
           transform="translate(1232.0948,984.4387)"
           id="g238"><path
             id="path240"
             style="fill:#c0b904;fill-opacity:1;fill-rule:nonzero;stroke:none"
             d="m 0,0 5.562,-10.353 c 0,0 -143.833,-20.979 -266.545,-104.955 v 15.831 C -184.471,-28.063 0,0 0,0" /></g><g
           transform="translate(970.0499,1234.0339)"
           id="g242"><path
             id="path244"
             style="fill:#e7c568;fill-opacity:1;fill-rule:nonzero;stroke:none"
             d="m 0,0 c -1.849,0 -3.343,1.496 -3.343,3.343 v 224.24 c 0,1.848 1.494,3.344 3.343,3.344 1.847,0 3.342,-1.496 3.342,-3.344 V 3.343 C 3.342,1.496 1.847,0 0,0" /></g><g
           transform="translate(936.9664,1205.6414)"
           id="g246"><path
             id="path248"
             style="fill:#e7c568;fill-opacity:1;fill-rule:nonzero;stroke:none"
             d="m 0,0 29.931,-14.412 v 46.148 z m 33.808,-24.461 c -0.574,0 -1.149,0.127 -1.683,0.385 L -8.14,-4.688 c -1.113,0.535 -1.905,1.572 -2.13,2.787 -0.226,1.217 0.144,2.467 0.992,3.366 l 40.265,42.696 c 1.091,1.157 2.782,1.536 4.252,0.943 1.476,-0.585 2.446,-2.015 2.446,-3.603 v -62.084 c 0,-1.334 -0.685,-2.574 -1.813,-3.283 -0.629,-0.394 -1.345,-0.595 -2.064,-0.595" /></g><g
           transform="translate(934.3873,1142.0647)"
           id="g250"><path
             id="path252"
             style="fill:#e7c568;fill-opacity:1;fill-rule:nonzero;stroke:none"
             d="M 0,0 32.51,-19.948 V 40.557 L 0,56.21 Z m 36.387,-30.754 c -0.704,0 -1.407,0.192 -2.028,0.572 L -5.906,-5.476 c -1.149,0.706 -1.849,1.958 -1.849,3.307 v 64.551 c 0,1.333 0.685,2.573 1.814,3.283 1.129,0.706 2.542,0.792 3.746,0.21 L 38.071,46.487 c 1.34,-0.646 2.193,-2.003 2.193,-3.493 v -69.87 c 0,-1.403 -0.759,-2.698 -1.984,-3.384 -0.589,-0.329 -1.242,-0.494 -1.893,-0.494" /></g><g
           transform="translate(947.989,1111.095)"
           id="g254"><path
             id="path256"
             style="fill:#e7c568;fill-opacity:1;fill-rule:nonzero;stroke:none"
             d="M 0,0 18.908,-13.75 V 1.924 L 0,13.525 Z m 22.786,-25.241 c -0.806,0 -1.605,0.25 -2.28,0.742 L -6.157,-5.11 c -1.004,0.729 -1.598,1.895 -1.598,3.135 v 22.429 c 0,1.403 0.759,2.698 1.984,3.384 1.225,0.686 2.727,0.655 3.921,-0.078 L 24.813,7.399 c 1.149,-0.706 1.85,-1.958 1.85,-3.305 v -25.457 c 0,-1.458 -0.818,-2.793 -2.119,-3.455 -0.554,-0.283 -1.158,-0.423 -1.758,-0.423" /></g><g
           transform="translate(974.6516,1237.3777)"
           id="g258"><path
             id="path260"
             style="fill:#e7c568;fill-opacity:1;fill-rule:nonzero;stroke:none"
             d="m 0,0 v -46.148 l 29.931,14.412 z m -3.877,-56.197 c -0.72,0 -1.436,0.198 -2.064,0.594 -1.128,0.71 -1.813,1.95 -1.813,3.284 V 9.765 c 0,1.588 0.968,3.017 2.445,3.603 1.477,0.592 3.161,0.214 4.253,-0.943 l 40.264,-42.696 c 0.849,-0.899 1.218,-2.149 0.992,-3.367 -0.224,-1.215 -1.015,-2.251 -2.129,-2.786 L -2.193,-55.813 c -0.536,-0.257 -1.111,-0.384 -1.684,-0.384" /></g><g
           transform="translate(974.6516,1182.6213)"
           id="g262"><path
             id="path264"
             style="fill:#e7c568;fill-opacity:1;fill-rule:nonzero;stroke:none"
             d="m 0,0 v -60.504 l 32.51,19.947 v 56.211 z m -3.877,-71.311 c -0.652,0 -1.305,0.165 -1.894,0.494 -1.225,0.686 -1.983,1.982 -1.983,3.384 v 69.87 c 0,1.49 0.853,2.847 2.193,3.493 l 40.265,19.388 c 1.204,0.582 2.617,0.502 3.747,-0.21 1.129,-0.71 1.814,-1.95 1.814,-3.283 v -64.551 c 0,-1.348 -0.701,-2.6 -1.85,-3.306 L -1.85,-70.739 c -0.621,-0.38 -1.323,-0.572 -2.027,-0.572" /></g><g
           transform="translate(974.6516,1113.0188)"
           id="g266"><path
             id="path268"
             style="fill:#e7c568;fill-opacity:1;fill-rule:nonzero;stroke:none"
             d="m 0,0 v -15.673 l 18.907,13.749 v 13.525 z m -3.877,-27.165 c -0.601,0 -1.204,0.141 -1.76,0.423 -1.3,0.662 -2.117,1.997 -2.117,3.455 V 2.17 c 0,1.348 0.7,2.6 1.849,3.305 l 26.663,16.361 c 1.195,0.733 2.696,0.765 3.922,0.078 1.224,-0.685 1.983,-1.98 1.983,-3.384 V -3.899 c 0,-1.24 -0.595,-2.406 -1.599,-3.135 L -1.598,-26.422 c -0.673,-0.493 -1.474,-0.743 -2.279,-0.743" /></g><g
           transform="translate(979.3233,1075.5422)"
           id="g270"><path
             id="path272"
             style="fill:#e7c568;fill-opacity:1;fill-rule:nonzero;stroke:none"
             d="m 0,0 c 0,-4.303 -3.488,-7.79 -7.791,-7.79 -4.301,0 -7.789,3.487 -7.789,7.79 0,4.301 3.488,7.789 7.789,7.789 C -3.488,7.789 0,4.301 0,0" /></g><g
           transform="translate(977.0411,1059.1506)"
           id="g274"><path
             id="path276"
             style="fill:#e7c568;fill-opacity:1;fill-rule:nonzero;stroke:none"
             d="m 0,0 c 0,-3.042 -2.466,-5.508 -5.509,-5.508 -3.041,0 -5.506,2.466 -5.506,5.508 0,3.042 2.465,5.507 5.506,5.507 C -2.466,5.507 0,3.042 0,0" /></g><g
           transform="translate(975.4278,1046.5403)"
           id="g278"><path
             id="path280"
             style="fill:#e7c568;fill-opacity:1;fill-rule:nonzero;stroke:none"
             d="m 0,0 c 0,-2.151 -1.743,-3.896 -3.896,-3.896 -2.149,0 -3.893,1.745 -3.893,3.896 0,2.15 1.744,3.895 3.893,3.895 C -1.743,3.895 0,2.15 0,0" /></g><g
           transform="translate(934.421,1123.1941)"
           id="g282"><path
             id="path284"
             style="fill:#e7c568;fill-opacity:1;fill-rule:nonzero;stroke:none"
             d="m 0,0 c 0,-4.302 -3.487,-7.79 -7.789,-7.79 -4.302,0 -7.79,3.488 -7.79,7.79 0,4.302 3.488,7.79 7.79,7.79 C -3.487,7.79 0,4.302 0,0" /></g><g
           transform="translate(932.1393,1106.8035)"
           id="g286"><path
             id="path288"
             style="fill:#e7c568;fill-opacity:1;fill-rule:nonzero;stroke:none"
             d="m 0,0 c 0,-3.042 -2.466,-5.508 -5.507,-5.508 -3.042,0 -5.508,2.466 -5.508,5.508 0,3.042 2.466,5.507 5.508,5.507 C -2.466,5.507 0,3.042 0,0" /></g><g
           transform="translate(930.526,1094.1926)"
           id="g290"><path
             id="path292"
             style="fill:#e7c568;fill-opacity:1;fill-rule:nonzero;stroke:none"
             d="m 0,0 c 0,-2.151 -1.742,-3.895 -3.894,-3.895 -2.151,0 -3.895,1.744 -3.895,3.895 0,2.15 1.744,3.894 3.895,3.894 C -1.742,3.894 0,2.15 0,0" /></g><g
           transform="translate(1021.257,1121.4714)"
           id="g294"><path
             id="path296"
             style="fill:#e7c568;fill-opacity:1;fill-rule:nonzero;stroke:none"
             d="m 0,0 c 0,-4.301 -3.488,-7.789 -7.79,-7.789 -4.302,0 -7.79,3.488 -7.79,7.789 0,4.303 3.488,7.79 7.79,7.79 C -3.488,7.79 0,4.303 0,0" /></g><g
           transform="translate(1018.9738,1105.0808)"
           id="g298"><path
             id="path300"
             style="fill:#e7c568;fill-opacity:1;fill-rule:nonzero;stroke:none"
             d="m 0,0 c 0,-3.042 -2.465,-5.508 -5.507,-5.508 -3.042,0 -5.509,2.466 -5.509,5.508 0,3.042 2.467,5.508 5.509,5.508 C -2.465,5.508 0,3.042 0,0" /></g><g
           transform="translate(1017.3615,1092.47)"
           id="g302"><path
             id="path304"
             style="fill:#e7c568;fill-opacity:1;fill-rule:nonzero;stroke:none"
             d="m 0,0 c 0,-2.151 -1.744,-3.894 -3.895,-3.894 -2.151,0 -3.894,1.743 -3.894,3.894 0,2.151 1.743,3.895 3.894,3.895 C -1.744,3.895 0,2.151 0,0" /></g><g
           transform="translate(998.6964,1172.3708)"
           id="g306"><path
             id="path308"
             style="fill:#e7c568;fill-opacity:1;fill-rule:nonzero;stroke:none"
             d="m 0,0 c 0,-4.302 -3.488,-7.789 -7.79,-7.789 -4.302,0 -7.787,3.487 -7.787,7.789 0,4.302 3.485,7.79 7.787,7.79 C -3.488,7.79 0,4.302 0,0" /></g><g
           transform="translate(996.4161,1155.9792)"
           id="g310"><path
             id="path312"
             style="fill:#e7c568;fill-opacity:1;fill-rule:nonzero;stroke:none"
             d="m 0,0 c 0,-3.042 -2.468,-5.507 -5.51,-5.507 -3.041,0 -5.508,2.465 -5.508,5.507 0,3.042 2.467,5.509 5.508,5.509 C -2.468,5.509 0,3.042 0,0" /></g><g
           transform="translate(994.8019,1143.3689)"
           id="g314"><path
             id="path316"
             style="fill:#e7c568;fill-opacity:1;fill-rule:nonzero;stroke:none"
             d="m 0,0 c 0,-2.151 -1.744,-3.895 -3.896,-3.895 -2.15,0 -3.894,1.744 -3.894,3.895 0,2.151 1.744,3.895 3.894,3.895 C -1.744,3.895 0,2.151 0,0" /></g><g
           transform="translate(958.4308,1172.3708)"
           id="g318"><path
             id="path320"
             style="fill:#e7c568;fill-opacity:1;fill-rule:nonzero;stroke:none"
             d="m 0,0 c 0,-4.302 -3.488,-7.789 -7.79,-7.789 -4.301,0 -7.788,3.487 -7.788,7.789 0,4.302 3.487,7.79 7.788,7.79 C -3.488,7.79 0,4.302 0,0" /></g><g
           transform="translate(956.1495,1155.9792)"
           id="g322"><path
             id="path324"
             style="fill:#e7c568;fill-opacity:1;fill-rule:nonzero;stroke:none"
             d="m 0,0 c 0,-3.042 -2.466,-5.507 -5.508,-5.507 -3.042,0 -5.508,2.465 -5.508,5.507 0,3.042 2.466,5.509 5.508,5.509 C -2.466,5.509 0,3.042 0,0" /></g><g
           transform="translate(954.5367,1143.3689)"
           id="g326"><path
             id="path328"
             style="fill:#e7c568;fill-opacity:1;fill-rule:nonzero;stroke:none"
             d="m 0,0 c 0,-2.151 -1.744,-3.895 -3.896,-3.895 -2.15,0 -3.894,1.744 -3.894,3.895 0,2.151 1.744,3.895 3.894,3.895 C -1.744,3.895 0,2.151 0,0" /></g><g
           transform="translate(1080.214,1238.5989)"
           id="g330"><path
             id="path332"
             style="fill:#e7c568;fill-opacity:1;fill-rule:nonzero;stroke:none"
             d="m 0,0 c -1.159,0 -2.097,0.937 -2.097,2.098 v 140.734 c 0,1.16 0.938,2.097 2.097,2.097 1.16,0 2.099,-0.937 2.099,-2.097 V 2.098 C 2.099,0.937 1.16,0 0,0" /></g><g
           transform="translate(1059.4513,1220.7795)"
           id="g334"><path
             id="path336"
             style="fill:#e7c568;fill-opacity:1;fill-rule:nonzero;stroke:none"
             d="m 0,0 18.785,-9.046 v 28.963 z m 21.219,-15.352 c -0.361,0 -0.722,0.08 -1.056,0.241 L -5.108,-2.942 c -0.699,0.336 -1.196,0.985 -1.336,1.748 -0.143,0.764 0.09,1.548 0.622,2.112 l 25.269,26.797 c 0.686,0.726 1.746,0.964 2.669,0.592 0.928,-0.367 1.536,-1.265 1.536,-2.261 v -38.965 c 0,-0.836 -0.43,-1.614 -1.138,-2.06 -0.395,-0.248 -0.844,-0.373 -1.295,-0.373" /></g><g
           transform="translate(1057.8331,1180.8787)"
           id="g338"><path
             id="path340"
             style="fill:#e7c568;fill-opacity:1;fill-rule:nonzero;stroke:none"
             d="M 0,0 20.403,-12.521 V 25.453 L 0,35.277 Z m 22.837,-19.302 c -0.441,0 -0.883,0.12 -1.274,0.359 L -3.706,-3.438 c -0.722,0.444 -1.16,1.23 -1.16,2.076 V 39.15 c 0,0.836 0.429,1.615 1.137,2.061 0.709,0.443 1.596,0.497 2.352,0.132 L 23.894,29.175 c 0.84,-0.405 1.377,-1.258 1.377,-2.193 v -43.851 c 0,-0.88 -0.477,-1.693 -1.247,-2.123 -0.369,-0.206 -0.779,-0.31 -1.187,-0.31" /></g><g
           transform="translate(1066.3702,1161.4417)"
           id="g342"><path
             id="path344"
             style="fill:#e7c568;fill-opacity:1;fill-rule:nonzero;stroke:none"
             d="M 0,0 11.866,-8.63 V 1.206 L 0,8.488 Z m 14.3,-15.842 c -0.504,0 -1.008,0.157 -1.431,0.467 L -3.864,-3.208 c -0.631,0.458 -1.004,1.19 -1.004,1.969 v 14.076 c 0,0.88 0.476,1.693 1.246,2.123 0.768,0.431 1.71,0.412 2.461,-0.049 L 15.572,4.644 c 0.723,-0.443 1.161,-1.229 1.161,-2.076 v -15.976 c 0,-0.915 -0.513,-1.753 -1.33,-2.169 -0.347,-0.177 -0.726,-0.265 -1.103,-0.265" /></g><g
           transform="translate(1083.1036,1240.697)"
           id="g346"><path
             id="path348"
             style="fill:#e7c568;fill-opacity:1;fill-rule:nonzero;stroke:none"
             d="m 0,0 v -28.964 l 18.784,9.047 z m -2.434,-35.27 c -0.452,0 -0.901,0.125 -1.295,0.373 -0.708,0.446 -1.138,1.224 -1.138,2.061 V 6.128 c 0,0.997 0.609,1.894 1.535,2.261 0.926,0.372 1.983,0.135 2.668,-0.592 l 25.27,-26.796 c 0.534,-0.564 0.764,-1.349 0.623,-2.112 -0.141,-0.764 -0.638,-1.412 -1.336,-1.749 l -25.27,-12.168 c -0.335,-0.162 -0.696,-0.242 -1.057,-0.242" /></g><g
           transform="translate(1083.1036,1206.3318)"
           id="g350"><path
             id="path352"
             style="fill:#e7c568;fill-opacity:1;fill-rule:nonzero;stroke:none"
             d="m 0,0 v -37.974 l 20.403,12.521 V 9.824 Z m -2.434,-44.755 c -0.409,0 -0.818,0.104 -1.188,0.31 -0.769,0.43 -1.245,1.243 -1.245,2.123 V 1.529 c 0,0.935 0.535,1.787 1.378,2.193 L 21.78,15.89 c 0.755,0.364 1.643,0.314 2.351,-0.132 0.709,-0.446 1.139,-1.225 1.139,-2.061 v -40.512 c 0,-0.847 -0.439,-1.632 -1.161,-2.076 l -25.27,-15.505 c -0.39,-0.239 -0.831,-0.359 -1.273,-0.359" /></g><g
           transform="translate(1083.1036,1162.6477)"
           id="g354"><path
             id="path356"
             style="fill:#e7c568;fill-opacity:1;fill-rule:nonzero;stroke:none"
             d="m 0,0 v -9.836 l 11.866,8.63 v 8.488 z m -2.434,-17.048 c -0.377,0 -0.755,0.088 -1.104,0.265 -0.816,0.416 -1.329,1.254 -1.329,2.169 V 1.362 c 0,0.846 0.439,1.633 1.16,2.076 l 16.734,10.267 c 0.75,0.461 1.694,0.48 2.461,0.049 0.769,-0.43 1.245,-1.243 1.245,-2.123 V -2.445 c 0,-0.779 -0.374,-1.511 -1.003,-1.969 L -1.003,-16.582 c -0.423,-0.309 -0.926,-0.466 -1.431,-0.466" /></g><g
           transform="translate(1086.0343,1139.1277)"
           id="g358"><path
             id="path360"
             style="fill:#e7c568;fill-opacity:1;fill-rule:nonzero;stroke:none"
             d="m 0,0 c 0,-2.699 -2.188,-4.888 -4.889,-4.888 -2.699,0 -4.887,2.189 -4.887,4.888 0,2.7 2.188,4.889 4.887,4.889 C -2.188,4.889 0,2.7 0,0" /></g><g
           transform="translate(1084.6027,1128.8406)"
           id="g362"><path
             id="path364"
             style="fill:#e7c568;fill-opacity:1;fill-rule:nonzero;stroke:none"
             d="m 0,0 c 0,-1.91 -1.547,-3.456 -3.457,-3.456 -1.907,0 -3.455,1.546 -3.455,3.456 0,1.91 1.548,3.457 3.455,3.457 C -1.547,3.457 0,1.91 0,0" /></g><g
           transform="translate(1083.5909,1120.926)"
           id="g366"><path
             id="path368"
             style="fill:#e7c568;fill-opacity:1;fill-rule:nonzero;stroke:none"
             d="m 0,0 c 0,-1.349 -1.095,-2.444 -2.445,-2.444 -1.35,0 -2.445,1.095 -2.445,2.444 0,1.35 1.095,2.444 2.445,2.444 C -1.095,2.444 0,1.35 0,0" /></g><g
           transform="translate(1057.8546,1169.0349)"
           id="g370"><path
             id="path372"
             style="fill:#e7c568;fill-opacity:1;fill-rule:nonzero;stroke:none"
             d="m 0,0 c 0,-2.7 -2.189,-4.888 -4.888,-4.888 -2.701,0 -4.889,2.188 -4.889,4.888 0,2.7 2.188,4.889 4.889,4.889 C -2.189,4.889 0,2.7 0,0" /></g><g
           transform="translate(1056.423,1158.7478)"
           id="g374"><path
             id="path376"
             style="fill:#e7c568;fill-opacity:1;fill-rule:nonzero;stroke:none"
             d="m 0,0 c 0,-1.909 -1.548,-3.457 -3.456,-3.457 -1.91,0 -3.458,1.548 -3.458,3.457 0,1.909 1.548,3.457 3.458,3.457 C -1.548,3.457 0,1.909 0,0" /></g><g
           transform="translate(1055.4113,1150.8333)"
           id="g378"><path
             id="path380"
             style="fill:#e7c568;fill-opacity:1;fill-rule:nonzero;stroke:none"
             d="m 0,0 c 0,-1.35 -1.096,-2.445 -2.444,-2.445 -1.351,0 -2.446,1.095 -2.446,2.445 0,1.35 1.095,2.444 2.446,2.444 C -1.096,2.444 0,1.35 0,0" /></g><g
           transform="translate(1112.3527,1167.9543)"
           id="g382"><path
             id="path384"
             style="fill:#e7c568;fill-opacity:1;fill-rule:nonzero;stroke:none"
             d="m 0,0 c 0,-2.7 -2.189,-4.889 -4.889,-4.889 -2.7,0 -4.888,2.189 -4.888,4.889 0,2.7 2.188,4.888 4.888,4.888 C -2.189,4.888 0,2.7 0,0" /></g><g
           transform="translate(1110.921,1157.6672)"
           id="g386"><path
             id="path388"
             style="fill:#e7c568;fill-opacity:1;fill-rule:nonzero;stroke:none"
             d="m 0,0 c 0,-1.91 -1.548,-3.457 -3.457,-3.457 -1.91,0 -3.457,1.547 -3.457,3.457 0,1.908 1.547,3.456 3.457,3.456 C -1.548,3.456 0,1.908 0,0" /></g><g
           transform="translate(1109.9073,1149.7527)"
           id="g390"><path
             id="path392"
             style="fill:#e7c568;fill-opacity:1;fill-rule:nonzero;stroke:none"
             d="m 0,0 c 0,-1.351 -1.094,-2.444 -2.443,-2.444 -1.351,0 -2.445,1.093 -2.445,2.444 0,1.349 1.094,2.444 2.445,2.444 C -1.094,2.444 0,1.349 0,0" /></g><g
           transform="translate(1098.1935,1199.8982)"
           id="g394"><path
             id="path396"
             style="fill:#e7c568;fill-opacity:1;fill-rule:nonzero;stroke:none"
             d="m 0,0 c 0,-2.7 -2.188,-4.888 -4.888,-4.888 -2.7,0 -4.888,2.188 -4.888,4.888 0,2.7 2.188,4.889 4.888,4.889 C -2.188,4.889 0,2.7 0,0" /></g><g
           transform="translate(1096.7628,1189.6111)"
           id="g398"><path
             id="path400"
             style="fill:#e7c568;fill-opacity:1;fill-rule:nonzero;stroke:none"
             d="m 0,0 c 0,-1.91 -1.548,-3.456 -3.457,-3.456 -1.909,0 -3.457,1.546 -3.457,3.456 0,1.91 1.548,3.456 3.457,3.456 C -1.548,3.456 0,1.91 0,0" /></g><g
           transform="translate(1095.7491,1181.6965)"
           id="g402"><path
             id="path404"
             style="fill:#e7c568;fill-opacity:1;fill-rule:nonzero;stroke:none"
             d="m 0,0 c 0,-1.349 -1.095,-2.444 -2.443,-2.444 -1.351,0 -2.445,1.095 -2.445,2.444 0,1.35 1.094,2.444 2.445,2.444 C -1.095,2.444 0,1.35 0,0" /></g><g
           transform="translate(1072.923,1199.8982)"
           id="g406"><path
             id="path408"
             style="fill:#e7c568;fill-opacity:1;fill-rule:nonzero;stroke:none"
             d="m 0,0 c 0,-2.7 -2.188,-4.888 -4.889,-4.888 -2.699,0 -4.887,2.188 -4.887,4.888 0,2.7 2.188,4.889 4.887,4.889 C -2.188,4.889 0,2.7 0,0" /></g><g
           transform="translate(1071.4913,1189.6111)"
           id="g410"><path
             id="path412"
             style="fill:#e7c568;fill-opacity:1;fill-rule:nonzero;stroke:none"
             d="m 0,0 c 0,-1.91 -1.548,-3.456 -3.457,-3.456 -1.909,0 -3.456,1.546 -3.456,3.456 0,1.91 1.547,3.456 3.456,3.456 C -1.548,3.456 0,1.91 0,0" /></g><g
           transform="translate(1070.4786,1181.6965)"
           id="g414"><path
             id="path416"
             style="fill:#e7c568;fill-opacity:1;fill-rule:nonzero;stroke:none"
             d="m 0,0 c 0,-1.349 -1.095,-2.444 -2.444,-2.444 -1.351,0 -2.445,1.095 -2.445,2.444 0,1.35 1.094,2.444 2.445,2.444 C -1.095,2.444 0,1.35 0,0" /></g><g
           transform="translate(862.0069,1238.5989)"
           id="g418"><path
             id="path420"
             style="fill:#e7c568;fill-opacity:1;fill-rule:nonzero;stroke:none"
             d="m 0,0 c -1.159,0 -2.098,0.937 -2.098,2.098 v 140.734 c 0,1.16 0.939,2.097 2.098,2.097 1.16,0 2.098,-0.937 2.098,-2.097 V 2.098 C 2.098,0.937 1.16,0 0,0" /></g><g
           transform="translate(841.2442,1220.7795)"
           id="g422"><path
             id="path424"
             style="fill:#e7c568;fill-opacity:1;fill-rule:nonzero;stroke:none"
             d="m 0,0 18.785,-9.046 v 28.963 z m 21.218,-15.352 c -0.359,0 -0.721,0.08 -1.056,0.241 L -5.109,-2.942 c -0.699,0.336 -1.196,0.985 -1.336,1.748 -0.142,0.764 0.09,1.548 0.622,2.112 l 25.27,26.797 c 0.685,0.726 1.746,0.964 2.67,0.592 0.926,-0.367 1.535,-1.265 1.535,-2.261 v -38.965 c 0,-0.836 -0.43,-1.614 -1.139,-2.06 -0.394,-0.248 -0.844,-0.373 -1.295,-0.373" /></g><g
           transform="translate(839.6256,1180.8787)"
           id="g426"><path
             id="path428"
             style="fill:#e7c568;fill-opacity:1;fill-rule:nonzero;stroke:none"
             d="M 0,0 20.403,-12.521 V 25.453 L 0,35.277 Z m 22.836,-19.302 c -0.441,0 -0.883,0.12 -1.273,0.359 L -3.706,-3.438 c -0.722,0.444 -1.161,1.23 -1.161,2.076 V 39.15 c 0,0.836 0.43,1.615 1.138,2.061 0.709,0.443 1.596,0.497 2.352,0.132 l 25.27,-12.168 c 0.841,-0.405 1.378,-1.258 1.378,-2.193 v -43.851 c 0,-0.88 -0.478,-1.693 -1.246,-2.123 -0.369,-0.206 -0.78,-0.31 -1.189,-0.31" /></g><g
           transform="translate(848.1622,1161.4417)"
           id="g430"><path
             id="path432"
             style="fill:#e7c568;fill-opacity:1;fill-rule:nonzero;stroke:none"
             d="M 0,0 11.867,-8.63 V 1.206 L 0,8.488 Z m 14.3,-15.842 c -0.505,0 -1.008,0.157 -1.43,0.467 L -3.864,-3.208 c -0.63,0.458 -1.004,1.19 -1.004,1.969 v 14.076 c 0,0.88 0.477,1.693 1.246,2.123 0.768,0.431 1.712,0.412 2.461,-0.049 L 15.573,4.644 c 0.721,-0.443 1.161,-1.229 1.161,-2.076 v -15.976 c 0,-0.915 -0.514,-1.753 -1.33,-2.169 -0.349,-0.177 -0.728,-0.265 -1.104,-0.265" /></g><g
           transform="translate(864.8961,1240.697)"
           id="g434"><path
             id="path436"
             style="fill:#e7c568;fill-opacity:1;fill-rule:nonzero;stroke:none"
             d="m 0,0 v -28.964 l 18.784,9.047 z m -2.434,-35.27 c -0.451,0 -0.9,0.125 -1.295,0.373 -0.708,0.446 -1.138,1.224 -1.138,2.061 V 6.128 c 0,0.997 0.608,1.894 1.534,2.261 0.928,0.372 1.984,0.135 2.669,-0.592 l 25.271,-26.796 c 0.532,-0.564 0.766,-1.349 0.622,-2.112 -0.14,-0.764 -0.637,-1.412 -1.335,-1.749 L -1.378,-35.028 c -0.334,-0.162 -0.695,-0.242 -1.056,-0.242" /></g><g
           transform="translate(864.8961,1206.3318)"
           id="g438"><path
             id="path440"
             style="fill:#e7c568;fill-opacity:1;fill-rule:nonzero;stroke:none"
             d="m 0,0 v -37.974 l 20.402,12.521 V 9.824 Z m -2.434,-44.755 c -0.409,0 -0.819,0.104 -1.188,0.31 -0.769,0.43 -1.245,1.243 -1.245,2.123 V 1.529 c 0,0.935 0.536,1.787 1.377,2.193 L 21.781,15.89 c 0.755,0.364 1.642,0.314 2.35,-0.132 0.708,-0.446 1.139,-1.225 1.139,-2.061 v -40.512 c 0,-0.847 -0.44,-1.632 -1.161,-2.076 l -25.27,-15.505 c -0.39,-0.239 -0.831,-0.359 -1.273,-0.359" /></g><g
           transform="translate(864.8961,1162.6477)"
           id="g442"><path
             id="path444"
             style="fill:#e7c568;fill-opacity:1;fill-rule:nonzero;stroke:none"
             d="m 0,0 v -9.836 l 11.866,8.63 v 8.488 z m -2.434,-17.048 c -0.377,0 -0.755,0.088 -1.104,0.265 -0.816,0.416 -1.329,1.254 -1.329,2.169 V 1.362 c 0,0.846 0.439,1.633 1.16,2.076 l 16.734,10.267 c 0.75,0.461 1.692,0.48 2.461,0.049 0.769,-0.43 1.245,-1.243 1.245,-2.123 V -2.445 c 0,-0.779 -0.372,-1.511 -1.003,-1.969 L -1.003,-16.582 c -0.423,-0.309 -0.926,-0.466 -1.431,-0.466" /></g><g
           transform="translate(867.8272,1139.1277)"
           id="g446"><path
             id="path448"
             style="fill:#e7c568;fill-opacity:1;fill-rule:nonzero;stroke:none"
             d="m 0,0 c 0,-2.699 -2.188,-4.888 -4.889,-4.888 -2.699,0 -4.889,2.189 -4.889,4.888 0,2.7 2.19,4.889 4.889,4.889 C -2.188,4.889 0,2.7 0,0" /></g><g
           transform="translate(866.3951,1128.8406)"
           id="g450"><path
             id="path452"
             style="fill:#e7c568;fill-opacity:1;fill-rule:nonzero;stroke:none"
             d="m 0,0 c 0,-1.91 -1.547,-3.456 -3.457,-3.456 -1.909,0 -3.456,1.546 -3.456,3.456 0,1.91 1.547,3.457 3.456,3.457 C -1.547,3.457 0,1.91 0,0" /></g><g
           transform="translate(865.3829,1120.926)"
           id="g454"><path
             id="path456"
             style="fill:#e7c568;fill-opacity:1;fill-rule:nonzero;stroke:none"
             d="m 0,0 c 0,-1.349 -1.095,-2.444 -2.445,-2.444 -1.35,0 -2.444,1.095 -2.444,2.444 0,1.35 1.094,2.444 2.444,2.444 C -1.095,2.444 0,1.35 0,0" /></g><g
           transform="translate(839.6466,1169.0349)"
           id="g458"><path
             id="path460"
             style="fill:#e7c568;fill-opacity:1;fill-rule:nonzero;stroke:none"
             d="m 0,0 c 0,-2.7 -2.188,-4.888 -4.888,-4.888 -2.699,0 -4.889,2.188 -4.889,4.888 0,2.7 2.19,4.889 4.889,4.889 C -2.188,4.889 0,2.7 0,0" /></g><g
           transform="translate(838.2149,1158.7478)"
           id="g462"><path
             id="path464"
             style="fill:#e7c568;fill-opacity:1;fill-rule:nonzero;stroke:none"
             d="m 0,0 c 0,-1.909 -1.547,-3.457 -3.457,-3.457 -1.909,0 -3.457,1.548 -3.457,3.457 0,1.909 1.548,3.457 3.457,3.457 C -1.547,3.457 0,1.909 0,0" /></g><g
           transform="translate(837.2027,1150.8333)"
           id="g466"><path
             id="path468"
             style="fill:#e7c568;fill-opacity:1;fill-rule:nonzero;stroke:none"
             d="m 0,0 c 0,-1.35 -1.094,-2.445 -2.444,-2.445 -1.351,0 -2.445,1.095 -2.445,2.445 0,1.35 1.094,2.444 2.445,2.444 C -1.094,2.444 0,1.35 0,0" /></g><g
           transform="translate(894.1451,1167.9543)"
           id="g470"><path
             id="path472"
             style="fill:#e7c568;fill-opacity:1;fill-rule:nonzero;stroke:none"
             d="m 0,0 c 0,-2.7 -2.188,-4.889 -4.889,-4.889 -2.7,0 -4.889,2.189 -4.889,4.889 0,2.7 2.189,4.888 4.889,4.888 C -2.188,4.888 0,2.7 0,0" /></g><g
           transform="translate(892.7135,1157.6672)"
           id="g474"><path
             id="path476"
             style="fill:#e7c568;fill-opacity:1;fill-rule:nonzero;stroke:none"
             d="m 0,0 c 0,-1.91 -1.548,-3.457 -3.457,-3.457 -1.909,0 -3.457,1.547 -3.457,3.457 0,1.908 1.548,3.456 3.457,3.456 C -1.548,3.456 0,1.908 0,0" /></g><g
           transform="translate(891.7013,1149.7527)"
           id="g478"><path
             id="path480"
             style="fill:#e7c568;fill-opacity:1;fill-rule:nonzero;stroke:none"
             d="m 0,0 c 0,-1.351 -1.095,-2.444 -2.445,-2.444 -1.35,0 -2.445,1.093 -2.445,2.444 0,1.349 1.095,2.444 2.445,2.444 C -1.095,2.444 0,1.349 0,0" /></g><g
           transform="translate(879.9859,1199.8982)"
           id="g482"><path
             id="path484"
             style="fill:#e7c568;fill-opacity:1;fill-rule:nonzero;stroke:none"
             d="m 0,0 c 0,-2.7 -2.188,-4.888 -4.889,-4.888 -2.699,0 -4.888,2.188 -4.888,4.888 0,2.7 2.189,4.889 4.888,4.889 C -2.188,4.889 0,2.7 0,0" /></g><g
           transform="translate(878.5543,1189.6111)"
           id="g486"><path
             id="path488"
             style="fill:#e7c568;fill-opacity:1;fill-rule:nonzero;stroke:none"
             d="m 0,0 c 0,-1.91 -1.547,-3.456 -3.457,-3.456 -1.909,0 -3.456,1.546 -3.456,3.456 0,1.91 1.547,3.456 3.456,3.456 C -1.547,3.456 0,1.91 0,0" /></g><g
           transform="translate(877.5421,1181.6965)"
           id="g490"><path
             id="path492"
             style="fill:#e7c568;fill-opacity:1;fill-rule:nonzero;stroke:none"
             d="m 0,0 c 0,-1.349 -1.095,-2.444 -2.445,-2.444 -1.35,0 -2.444,1.095 -2.444,2.444 0,1.35 1.094,2.444 2.444,2.444 C -1.095,2.444 0,1.35 0,0" /></g><g
           transform="translate(854.7159,1199.8982)"
           id="g494"><path
             id="path496"
             style="fill:#e7c568;fill-opacity:1;fill-rule:nonzero;stroke:none"
             d="m 0,0 c 0,-2.7 -2.189,-4.888 -4.888,-4.888 -2.701,0 -4.89,2.188 -4.89,4.888 0,2.7 2.189,4.889 4.89,4.889 C -2.189,4.889 0,2.7 0,0" /></g><g
           transform="translate(853.2838,1189.6111)"
           id="g498"><path
             id="path500"
             style="fill:#e7c568;fill-opacity:1;fill-rule:nonzero;stroke:none"
             d="m 0,0 c 0,-1.91 -1.548,-3.456 -3.456,-3.456 -1.91,0 -3.458,1.546 -3.458,3.456 0,1.91 1.548,3.456 3.458,3.456 C -1.548,3.456 0,1.91 0,0" /></g><g
           transform="translate(852.2716,1181.6965)"
           id="g502"><path
             id="path504"
             style="fill:#e7c568;fill-opacity:1;fill-rule:nonzero;stroke:none"
             d="m 0,0 c 0,-1.349 -1.095,-2.444 -2.444,-2.444 -1.351,0 -2.444,1.095 -2.444,2.444 0,1.35 1.093,2.444 2.444,2.444 C -1.095,2.444 0,1.35 0,0" /></g><g
           transform="translate(878.5543,1377.2483)"
           id="g506"><path
             id="path508"
             style="fill:#e7c568;fill-opacity:1;fill-rule:nonzero;stroke:none"
             d="m 0,0 c 0,-8.608 -6.979,-15.585 -15.586,-15.585 -8.608,0 -15.585,6.977 -15.585,15.585 0,8.607 6.977,15.585 15.585,15.585 C -6.979,15.585 0,8.607 0,0" /></g><g
           transform="translate(985.6349,1464.9607)"
           id="g510"><path
             id="path512"
             style="fill:#e7c568;fill-opacity:1;fill-rule:nonzero;stroke:none"
             d="m 0,0 c 0,-8.608 -6.978,-15.586 -15.585,-15.586 -8.608,0 -15.586,6.978 -15.586,15.586 0,8.607 6.978,15.585 15.586,15.585 C -6.978,15.585 0,8.607 0,0" /></g><g
           transform="translate(1094.2882,1377.2483)"
           id="g514"><path
             id="path516"
             style="fill:#e7c568;fill-opacity:1;fill-rule:nonzero;stroke:none"
             d="m 0,0 c 0,-8.608 -6.979,-15.585 -15.587,-15.585 -8.607,0 -15.586,6.977 -15.586,15.585 0,8.607 6.979,15.585 15.586,15.585 C -6.979,15.585 0,8.607 0,0" /></g></g></g><text
       id="text520"
       style="font-variant:normal;font-weight:bold;font-stretch:normal;font-size:110.34855652px;font-family:Cambria;-inkscape-font-specification:Cambria-Bold;writing-mode:lr-tb;fill:#ffffff;fill-opacity:1;fill-rule:nonzero;stroke:none"
       transform="matrix(0.26496767,-0.9642573,-0.9642573,-0.26496767,310.8332,903.2435)"><tspan
         id="tspan518"
         y="0"
         x="0">U</tspan></text>
<text
       id="text524"
       style="font-variant:normal;font-weight:bold;font-stretch:normal;font-size:110.34854126px;font-family:Cambria;-inkscape-font-specification:Cambria-Bold;writing-mode:lr-tb;fill:#ffffff;fill-opacity:1;fill-rule:nonzero;stroke:none"
       transform="matrix(0.3770308,-0.92620072,-0.92620072,-0.3770308,332.0287,827.0722)"><tspan
         id="tspan522"
         y="0"
         x="0">N</tspan></text>
<text
       id="text528"
       style="font-variant:normal;font-weight:bold;font-stretch:normal;font-size:110.34860229px;font-family:Cambria;-inkscape-font-specification:Cambria-Bold;writing-mode:lr-tb;fill:#ffffff;fill-opacity:1;fill-rule:nonzero;stroke:none"
       transform="matrix(0.48564185,-0.87415787,-0.87415787,-0.48564185,362.1728,753.534)"><tspan
         id="tspan526"
         y="0"
         x="0">D</tspan></text>
<text
       id="text532"
       style="font-variant:normal;font-weight:bold;font-stretch:normal;font-size:110.34853363px;font-family:Cambria;-inkscape-font-specification:Cambria-Bold;writing-mode:lr-tb;fill:#ffffff;fill-opacity:1;fill-rule:nonzero;stroke:none"
       transform="matrix(0.57953557,-0.81494695,-0.81494695,-0.57953557,402.4674,682.2786)"><tspan
         id="tspan530"
         y="0"
         x="0">E</tspan></text>
<text
       id="text536"
       style="font-variant:normal;font-weight:bold;font-stretch:normal;font-size:110.34853363px;font-family:Cambria;-inkscape-font-specification:Cambria-Bold;writing-mode:lr-tb;fill:#ffffff;fill-opacity:1;fill-rule:nonzero;stroke:none"
       transform="matrix(0.66322765,-0.74841772,-0.74841772,-0.66322765,441.709,627.0438)"><tspan
         id="tspan534"
         y="0"
         x="0">R</tspan></text>
<text
       id="text540"
       style="font-variant:normal;font-weight:bold;font-stretch:normal;font-size:110.34856415px;font-family:Cambria;-inkscape-font-specification:Cambria-Bold;writing-mode:lr-tb;fill:#ffffff;fill-opacity:1;fill-rule:nonzero;stroke:none"
       transform="matrix(0.73434668,-0.67877459,-0.67877459,-0.73434668,492.2862,570.7831)"><tspan
         id="tspan538"
         y="0"
         x="0">S</tspan></text>
<text
       id="text544"
       style="font-variant:normal;font-weight:bold;font-stretch:normal;font-size:110.34857941px;font-family:Cambria;-inkscape-font-specification:Cambria-Bold;writing-mode:lr-tb;fill:#ffffff;fill-opacity:1;fill-rule:nonzero;stroke:none"
       transform="matrix(0.79680048,-0.60424249,-0.60424249,-0.79680048,535.401,530.6234)"><tspan
         id="tspan542"
         y="0"
         x="0">T</tspan></text>
<text
       id="text548"
       style="font-variant:normal;font-weight:bold;font-stretch:normal;font-size:110.34854889px;font-family:Cambria;-inkscape-font-specification:Cambria-Bold;writing-mode:lr-tb;fill:#ffffff;fill-opacity:1;fill-rule:nonzero;stroke:none"
       transform="matrix(0.84915664,-0.52814108,-0.52814108,-0.84915664,584.3001,492.9857)"><tspan
         id="tspan546"
         y="0"
         x="0">A</tspan></text>
<text
       id="text552"
       style="font-variant:normal;font-weight:bold;font-stretch:normal;font-size:110.34854889px;font-family:Cambria;-inkscape-font-specification:Cambria-Bold;writing-mode:lr-tb;fill:#ffffff;fill-opacity:1;fill-rule:nonzero;stroke:none"
       transform="matrix(0.9044378,-0.42660551,-0.42660551,-0.9044378,649.1572,452.8351)"><tspan
         id="tspan550"
         y="0"
         x="0">N</tspan></text>
<text
       id="text556"
       style="font-variant:normal;font-weight:bold;font-stretch:normal;font-size:110.34854889px;font-family:Cambria;-inkscape-font-specification:Cambria-Bold;writing-mode:lr-tb;fill:#ffffff;fill-opacity:1;fill-rule:nonzero;stroke:none"
       transform="matrix(0.94924221,-0.31454605,-0.31454605,-0.94924221,721.1161,419.0997)"><tspan
         id="tspan554"
         y="0"
         x="0">D</tspan></text>
<text
       id="text560"
       style="font-variant:normal;font-weight:bold;font-stretch:normal;font-size:110.34854126px;font-family:Cambria;-inkscape-font-specification:Cambria-Bold;writing-mode:lr-tb;fill:#ffffff;fill-opacity:1;fill-rule:nonzero;stroke:none"
       transform="matrix(0.97414427,-0.22592686,-0.22592686,-0.97414427,798.4587,394.5855)"><tspan
         id="tspan558"
         y="0"
         x="0">I</tspan></text>
<text
       id="text564"
       style="font-variant:normal;font-weight:bold;font-stretch:normal;font-size:110.34861755px;font-family:Cambria;-inkscape-font-specification:Cambria-Bold;writing-mode:lr-tb;fill:#ffffff;fill-opacity:1;fill-rule:nonzero;stroke:none"
       transform="matrix(0.99045193,-0.13785855,-0.13785855,-0.99045193,839.1921,384.4612)"><tspan
         id="tspan562"
         y="0"
         x="0">N</tspan></text>
<text
       id="text568"
       style="font-variant:normal;font-weight:bold;font-stretch:normal;font-size:110.34858704px;font-family:Cambria;-inkscape-font-specification:Cambria-Bold;writing-mode:lr-tb;fill:#ffffff;fill-opacity:1;fill-rule:nonzero;stroke:none"
       transform="matrix(0.99970739,-0.02418971,-0.02418971,-0.99970739,917.6799,373.8973)"><tspan
         id="tspan566"
         y="0"
         x="0">G</tspan></text>
<text
       id="text572"
       style="font-variant:normal;font-weight:bold;font-stretch:normal;font-size:110.34859467px;font-family:Cambria;-inkscape-font-specification:Cambria-Bold;writing-mode:lr-tb;fill:#ffffff;fill-opacity:1;fill-rule:nonzero;stroke:none"
       transform="matrix(0.99174165,0.12825174,0.12825174,-0.99174165,1019.0148,373.5066)"><tspan
         id="tspan570"
         y="0"
         x="0">Q</tspan></text>
<text
       id="text576"
       style="font-variant:normal;font-weight:bold;font-stretch:normal;font-size:110.34861755px;font-family:Cambria;-inkscape-font-specification:Cambria-Bold;writing-mode:lr-tb;fill:#ffffff;fill-opacity:1;fill-rule:nonzero;stroke:none"
       transform="matrix(0.96939862,0.24549197,0.24549197,-0.96939862,1099.5042,384.2436)"><tspan
         id="tspan574"
         y="0"
         x="0">U</tspan></text>
<text
       id="text580"
       style="font-variant:normal;font-weight:bold;font-stretch:normal;font-size:110.34860229px;font-family:Cambria;-inkscape-font-specification:Cambria-Bold;writing-mode:lr-tb;fill:#ffffff;fill-opacity:1;fill-rule:nonzero;stroke:none"
       transform="matrix(0.93414507,0.35689352,0.35689352,-0.93414507,1176.0221,403.9344)"><tspan
         id="tspan578"
         y="0"
         x="0">R</tspan></text>
<text
       id="text584"
       style="font-variant:normal;font-weight:bold;font-stretch:normal;font-size:110.34858704px;font-family:Cambria;-inkscape-font-specification:Cambria-Bold;writing-mode:lr-tb;fill:#ffffff;fill-opacity:1;fill-rule:nonzero;stroke:none"
       transform="matrix(0.88725555,0.46127821,0.46127821,-0.88725555,1248.1296,431.7829)"><tspan
         id="tspan582"
         y="0"
         x="0">A</tspan></text>
<text
       id="text588"
       style="font-variant:normal;font-weight:bold;font-stretch:normal;font-size:110.34857941px;font-family:Cambria;-inkscape-font-specification:Cambria-Bold;writing-mode:lr-tb;fill:#ffffff;fill-opacity:1;fill-rule:nonzero;stroke:none"
       transform="matrix(0.82820275,0.56042858,0.56042858,-0.82820275,1315.7214,467.1106)"><tspan
         id="tspan586"
         y="0"
         x="0">N</tspan></text>
<text
       id="text592"
       style="font-variant:normal;font-weight:bold;font-stretch:normal;font-size:110.34860992px;font-family:Cambria;-inkscape-font-specification:Cambria-Bold;writing-mode:lr-tb;fill:#ffffff;fill-opacity:1;fill-rule:nonzero;stroke:none"
       transform="matrix(0.73907318,0.67362514,0.67362514,-0.73907318,1400.793,527.8755)"><tspan
         id="tspan590"
         y="0"
         x="0">F</tspan></text>
<text
       id="text596"
       style="font-variant:normal;font-weight:bold;font-stretch:normal;font-size:110.34856415px;font-family:Cambria;-inkscape-font-specification:Cambria-Bold;writing-mode:lr-tb;fill:#ffffff;fill-opacity:1;fill-rule:nonzero;stroke:none"
       transform="matrix(0.6651088,0.74674647,0.74674647,-0.6651088,1447.27,569.8029)"><tspan
         id="tspan594"
         y="0"
         x="0">O</tspan></text>
<text
       id="text600"
       style="font-variant:normal;font-weight:bold;font-stretch:normal;font-size:134.99998474px;font-family:Cambria;-inkscape-font-specification:Cambria-Bold;writing-mode:lr-tb;fill:#ffffff;fill-opacity:1;fill-rule:nonzero;stroke:none"
       transform="rotate(111.69068,358.74514,1126.715)"><tspan
         id="tspan598"
         y="0"
         x="0">O</tspan></text>
<text
       id="text604"
       style="font-variant:normal;font-weight:bold;font-stretch:normal;font-size:110.34854889px;font-family:Cambria;-inkscape-font-specification:Cambria-Bold;writing-mode:lr-tb;fill:#ffffff;fill-opacity:1;fill-rule:nonzero;stroke:none"
       transform="matrix(0.57325718,0.8193755,0.8193755,-0.57325718,1500.9612,630.6352)"><tspan
         id="tspan602"
         y="0"
         x="0">R</tspan></text>
<text
       id="text608"
       style="font-variant:normal;font-weight:bold;font-stretch:normal;font-size:110.34855652px;font-family:Cambria;-inkscape-font-specification:Cambria-Bold;writing-mode:lr-tb;fill:#ffffff;fill-opacity:1;fill-rule:nonzero;stroke:none"
       transform="matrix(0.44246706,0.89678476,0.89678476,-0.44246706,1558.0636,716.2854)"><tspan
         id="tspan606"
         y="0"
         x="0">A</tspan></text>
<text
       id="text612"
       style="font-variant:normal;font-weight:bold;font-stretch:normal;font-size:110.34854126px;font-family:Cambria;-inkscape-font-specification:Cambria-Bold;writing-mode:lr-tb;fill:#ffffff;fill-opacity:1;fill-rule:nonzero;stroke:none"
       transform="matrix(0.34613053,0.93818637,0.93818637,-0.34613053,1591.1765,784.5199)"><tspan
         id="tspan610"
         y="0"
         x="0">L</tspan></text>
<text
       id="text616"
       style="font-variant:normal;font-weight:bold;font-stretch:normal;font-size:110.34851074px;font-family:Cambria;-inkscape-font-specification:Cambria-Bold;writing-mode:lr-tb;fill:#ffffff;fill-opacity:1;fill-rule:nonzero;stroke:none"
       transform="matrix(0.25435684,0.96711044,0.96711044,-0.25435684,1613.2953,844.9696)"><tspan
         id="tspan614"
         y="0"
         x="0">L</tspan></text>
<g
       id="g618"><g
         clip-path="url(#clipPath624)"
         id="g620"><text
           id="text628"
           style="font-variant:normal;font-weight:bold;font-stretch:normal;font-size:136.60719299px;font-family:Cambria;-inkscape-font-specification:Cambria-Bold;writing-mode:lr-tb;fill:#ffffff;fill-opacity:1;fill-rule:nonzero;stroke:none"
           transform="matrix(0.35190316,0.92216452,0.93603641,-0.35719717,399.7872,1208.0483)"><tspan
             id="tspan626"
             y="0"
             x="0">Q</tspan></text>
<text
           id="text632"
           style="font-variant:normal;font-weight:bold;font-stretch:normal;font-size:136.38774109px;font-family:Cambria;-inkscape-font-specification:Cambria-Bold;writing-mode:lr-tb;fill:#ffffff;fill-opacity:1;fill-rule:nonzero;stroke:none"
           transform="matrix(0.48008934,0.86421917,0.8772196,-0.48731066,430.6104,1289.8325)"><tspan
             id="tspan630"
             y="0"
             x="0">U</tspan></text>
<text
           id="text636"
           style="font-variant:normal;font-weight:bold;font-stretch:normal;font-size:136.1317749px;font-family:Cambria;-inkscape-font-specification:Cambria-Bold;writing-mode:lr-tb;fill:#ffffff;fill-opacity:1;fill-rule:nonzero;stroke:none"
           transform="matrix(0.59627595,0.79088225,0.80277954,-0.60524593,471.5693,1364.3086)"><tspan
             id="tspan634"
             y="0"
             x="0">R</tspan></text>
<text
           id="text640"
           style="font-variant:normal;font-weight:bold;font-stretch:normal;font-size:135.85844421px;font-family:Cambria;-inkscape-font-specification:Cambria-Bold;writing-mode:lr-tb;fill:#ffffff;fill-opacity:1;fill-rule:nonzero;stroke:none"
           transform="matrix(0.69986961,0.70368535,0.71427063,-0.71039821,521.309,1430.9041)"><tspan
             id="tspan638"
             y="0"
             x="0">A</tspan></text>
<text
           id="text644"
           style="font-variant:normal;font-weight:bold;font-stretch:normal;font-size:136.12643433px;font-family:Cambria;-inkscape-font-specification:Cambria-Bold;writing-mode:lr-tb;fill:#ffffff;fill-opacity:1;fill-rule:nonzero;stroke:none"
           transform="matrix(0.78928608,0.59845173,0.60745439,-0.80115887,578.5208,1489.2355)"><tspan
             id="tspan642"
             y="0"
             x="0">N</tspan></text>
<text
           id="text648"
           style="font-variant:normal;font-weight:bold;font-stretch:normal;font-size:136.44035339px;font-family:Cambria;-inkscape-font-specification:Cambria-Bold;writing-mode:lr-tb;fill:#ffffff;fill-opacity:1;fill-rule:nonzero;stroke:none"
           transform="matrix(0.87848646,0.45262344,0.45943227,-0.89170176,670.5844,1555.4775)"><tspan
             id="tspan646"
             y="0"
             x="0">S</tspan></text>
<text
           id="text652"
           style="font-variant:normal;font-weight:bold;font-stretch:normal;font-size:136.63497925px;font-family:Cambria;-inkscape-font-specification:Cambria-Bold;writing-mode:lr-tb;fill:#ffffff;fill-opacity:1;fill-rule:nonzero;stroke:none"
           transform="matrix(0.92922322,0.33222165,0.33721891,-0.94320134,726.3044,1585.6792)"><tspan
             id="tspan650"
             y="0"
             x="0">H</tspan></text>
<text
           id="text656"
           style="font-variant:normal;font-weight:bold;font-stretch:normal;font-size:136.76052856px;font-family:Cambria;-inkscape-font-specification:Cambria-Bold;writing-mode:lr-tb;fill:#ffffff;fill-opacity:1;fill-rule:nonzero;stroke:none"
           transform="matrix(0.96042044,0.22278505,0.22613617,-0.97486759,813.3528,1615.5875)"><tspan
             id="tspan654"
             y="0"
             x="0">I</tspan></text>
<text
           id="text660"
           style="font-variant:normal;font-weight:bold;font-stretch:normal;font-size:136.83592224px;font-family:Cambria;-inkscape-font-specification:Cambria-Bold;writing-mode:lr-tb;fill:#ffffff;fill-opacity:1;fill-rule:nonzero;stroke:none"
           transform="matrix(0.97863191,0.11509989,0.11683189,-0.99335392,854.147,1626.6003)"><tspan
             id="tspan658"
             y="0"
             x="0">K</tspan></text>
<text
           id="text664"
           style="font-variant:normal;font-weight:bold;font-stretch:normal;font-size:136.79455566px;font-family:Cambria;-inkscape-font-specification:Cambria-Bold;writing-mode:lr-tb;fill:#ffffff;fill-opacity:1;fill-rule:nonzero;stroke:none"
           transform="matrix(0.96869641,-0.18216148,-0.18490209,-0.98326863,1029.2708,1634.9171)"><tspan
             id="tspan662"
             y="0"
             x="0">H</tspan></text>
<text
           id="text668"
           style="font-variant:normal;font-weight:bold;font-stretch:normal;font-size:136.6469574px;font-family:Cambria;-inkscape-font-specification:Cambria-Bold;writing-mode:lr-tb;fill:#ffffff;fill-opacity:1;fill-rule:nonzero;stroke:none"
           transform="matrix(0.93224619,-0.32337787,-0.32824296,-0.94626992,1118.458,1618.2878)"><tspan
             id="tspan666"
             y="0"
             x="0">A</tspan></text>
<text
           id="text672"
           style="font-variant:normal;font-weight:bold;font-stretch:normal;font-size:136.35882568px;font-family:Cambria;-inkscape-font-specification:Cambria-Bold;writing-mode:lr-tb;fill:#ffffff;fill-opacity:1;fill-rule:nonzero;stroke:none"
           transform="matrix(0.85627163,-0.49454442,-0.50198362,-0.86915235,1220.8909,1580.7992)"><tspan
             id="tspan670"
             y="0"
             x="0">K</tspan></text>
<text
           id="text676"
           style="font-variant:normal;font-weight:bold;font-stretch:normal;font-size:136.1105957px;font-family:Cambria;-inkscape-font-specification:Cambria-Bold;writing-mode:lr-tb;fill:#ffffff;fill-opacity:1;fill-rule:nonzero;stroke:none"
           transform="matrix(0.78449071,-0.60491322,-0.61401243,-0.79629141,1295.2743,1537.7445)"><tspan
             id="tspan674"
             y="0"
             x="0">E</tspan></text>
<text
           id="text680"
           style="font-variant:normal;font-weight:bold;font-stretch:normal;font-size:135.85905457px;font-family:Cambria;-inkscape-font-specification:Cambria-Bold;writing-mode:lr-tb;fill:#ffffff;fill-opacity:1;fill-rule:nonzero;stroke:none"
           transform="matrix(0.69967071,-0.70387728,-0.71446546,-0.71019633,1352.8186,1494.4211)"><tspan
             id="tspan678"
             y="0"
             x="0">N</tspan></text>
<text
           id="text684"
           style="font-variant:normal;font-weight:bold;font-stretch:normal;font-size:136.14656067px;font-family:Cambria;-inkscape-font-specification:Cambria-Bold;writing-mode:lr-tb;fill:#ffffff;fill-opacity:1;fill-rule:nonzero;stroke:none"
           transform="matrix(0.59019267,-0.79529884,-0.80726242,-0.5990706,1413.2949,1434.4015)"><tspan
             id="tspan682"
             y="0"
             x="0">D</tspan></text>
<text
           id="text688"
           style="font-variant:normal;font-weight:bold;font-stretch:normal;font-size:136.40577698px;font-family:Cambria;-inkscape-font-specification:Cambria-Bold;writing-mode:lr-tb;fill:#ffffff;fill-opacity:1;fill-rule:nonzero;stroke:none"
           transform="matrix(0.4708745,-0.86912525,-0.88220021,-0.47795851,1464.3477,1369.3209)"><tspan
             id="tspan686"
             y="0"
             x="0">R</tspan></text>
<g
           transform="translate(358.6334,1116.6252)"
           id="g690"><path
             id="path692"
             style="fill:#ffffff;fill-opacity:1;fill-rule:nonzero;stroke:none"
             d="m 0,0 c 0,-9.484 -7.688,-17.172 -17.172,-17.172 -9.484,0 -17.172,7.688 -17.172,17.172 0,9.484 7.688,17.172 17.172,17.172 C -7.688,17.172 0,9.484 0,0" /></g><g
           transform="translate(1623.465,1116.6252)"
           id="g694"><path
             id="path696"
             style="fill:#ffffff;fill-opacity:1;fill-rule:nonzero;stroke:none"
             d="m 0,0 c 0,-9.484 -7.688,-17.172 -17.173,-17.172 -9.483,0 -17.172,7.688 -17.172,17.172 0,9.484 7.689,17.172 17.172,17.172 C -7.688,17.172 0,9.484 0,0" /></g><g
           transform="translate(358.6334,977.9612)"
           id="g698"><path
             id="path700"
             style="fill:#ffffff;fill-opacity:1;fill-rule:nonzero;stroke:none"
             d="m 0,0 c 0,-9.484 -7.688,-17.172 -17.172,-17.172 -9.484,0 -17.172,7.688 -17.172,17.172 0,9.483 7.688,17.172 17.172,17.172 C -7.688,17.172 0,9.483 0,0" /></g><g
           transform="translate(1623.465,977.9612)"
           id="g702"><path
             id="path704"
             style="fill:#ffffff;fill-opacity:1;fill-rule:nonzero;stroke:none"
             d="m 0,0 c 0,-9.484 -7.688,-17.172 -17.173,-17.172 -9.483,0 -17.172,7.688 -17.172,17.172 0,9.483 7.689,17.172 17.172,17.172 C -7.688,17.172 0,9.483 0,0" /></g><text
           id="text708"
           style="font-variant:normal;font-weight:bold;font-stretch:normal;font-size:136.85671997px;font-family:Cambria;-inkscape-font-specification:Cambria-Bold;writing-mode:lr-tb;fill:#ffffff;fill-opacity:1;fill-rule:nonzero;stroke:none"
           transform="matrix(0.98360172,-0.05657742,-0.05742868,-0.99839821,942.1471,1636.601)"><tspan
             id="tspan706"
             y="0"
             x="0">K</tspan></text>
</g></g><g
       id="g710"><g
         clip-path="url(#clipPath716)"
         id="g712"><g
           transform="translate(464.4288,1504.3169)"
           id="g718"><path
             id="path720"
             style="fill:#ffffff;fill-opacity:1;fill-rule:nonzero;stroke:none"
             d="m 0,0 c 3.462,-1.044 6.52,-2.426 9.173,-4.15 2.691,-1.748 4.827,-3.843 6.411,-6.285 1.585,-2.444 2.745,-5.294 3.486,-8.552 0.74,-3.258 1.176,-7.287 1.306,-12.088 l -7.662,-1.39 c -0.718,2.928 -1.942,5.544 -3.668,7.845 -1.73,2.301 -0.104,-0.567 -3.126,1.396 -1.732,1.124 -7.418,7.1 -9.054,7.928 -1.638,0.827 -3.393,1.614 -5.267,2.359 z" /></g><g
           transform="translate(1223.2266,507.6817)"
           id="g722"><path
             id="path724"
             style="fill:#ffffff;fill-opacity:1;fill-rule:nonzero;stroke:none"
             d="m 0,0 c 2.42,-1.681 4.442,-3.522 6.064,-5.525 1.645,-2.032 2.773,-4.193 3.386,-6.486 0.612,-2.292 0.794,-4.793 0.547,-7.504 -0.247,-2.711 -0.923,-5.943 -2.031,-9.696 l -6.288,0.851 c 0.181,2.45 -0.108,4.786 -0.867,7.003 -0.761,2.22 -2.064,4.469 -3.912,6.751 -1.059,1.308 -2.119,2.489 -3.179,3.542 -1.06,1.053 -2.223,2.105 -3.487,3.154 z" /></g></g></g></g></svg>